<svg id="Component_3_5" data-name="Component 3 – 5" xmlns="http://www.w3.org/2000/svg" width="131" height="56" viewBox="0 0 131 56">
  <text id="Fid" transform="translate(22 38)" fill="#103037" font-size="40" font-family="CarosBold, Caros"><tspan x="0" y="0">Fid</tspan></text>
  <text id="Text_to_speech_Speech_Recognition" data-name="Text to speech &amp; Speech Recognition" transform="translate(0 54)" fill="#103037" font-size="7" font-family="Tahoma-Bold, Tahoma" font-weight="700"><tspan x="0" y="0">Text to speech &amp; Speech Recognition</tspan></text>
  <path id="comments_50px" d="M5.742,30.6a.559.559,0,0,1-.516-.465.688.688,0,0,1,.24-.71c1.144-.814,1.6-2.058,1.42-3.892H4.673A2.954,2.954,0,0,1,2,22.367V7.167A2.954,2.954,0,0,1,4.673,4H23.92a2.954,2.954,0,0,1,2.673,3.167v15.2a2.954,2.954,0,0,1-2.673,3.167H11.989C10.4,30.1,7.11,30.6,5.742,30.6Z" transform="translate(79.902 6.7)" fill="none" stroke="#707070" stroke-width="1"/>
  <path id="voice_recognition_30px" d="M4.248,2c-.083,0-.165,0-.248,0V16.9H7.528v-.893c0-.493.485-.931,1.206-1.087l2.88-.623c.72-.156,1.206-.594,1.206-1.088V11.022l2-.448c.382-.069.646-.294.646-.552a.472.472,0,0,0-.2-.361l-.024-.019-.026-.019L12.784,7.73C12.431,4.571,9.17,2.084,4.248,2Zm16.129,5.15a.925.925,0,0,0-.821.394c-.117.231,0,.485.3.633,1.623.832,2.667,2.112,2.667,3.561S21.48,14.47,19.856,15.3c-.383.2-.448.556-.147.8a1.229,1.229,0,0,0,1.239.1c2.028-1.039,3.339-2.653,3.339-4.461s-1.31-3.421-3.339-4.461A1.215,1.215,0,0,0,20.377,7.153ZM18.1,9.446a.839.839,0,0,0-.82.473c-.071.262.145.522.522.626.705.207,1.2.658,1.2,1.2s-.492.99-1.2,1.2c-.444.13-.642.47-.441.759a1.118,1.118,0,0,0,1.168.286c1.315-.386,2.234-1.247,2.234-2.241s-.92-1.856-2.234-2.241a1.286,1.286,0,0,0-.341-.054H18.1Z" transform="translate(80.056 11.835)" fill="#ff5700"/>
</svg>
