<svg xmlns="http://www.w3.org/2000/svg" width="107" height="162.5" viewBox="0 0 107 162.5">
  <path id="microphone_30px" d="M61.5,2C48.836,2,38.572,10.389,38.572,20.74V95.7c0,10.351,10.264,18.74,22.928,18.74s22.928-8.389,22.928-18.74V20.74C84.429,10.389,74.164,2,61.5,2ZM15.524,64.382c-4.215.054-7.581,2.887-7.523,6.332V95.7c0,21.951,20,40.172,45.857,43.227v12.994H30.929c-4.221,0-7.644,2.8-7.644,6.247s3.422,6.247,7.644,6.247H60.216a9.33,9.33,0,0,0,2.493,0H92.072c4.221,0,7.644-2.8,7.644-6.247s-3.422-6.247-7.644-6.247H69.143V138.929C95,135.874,115,117.653,115,95.7V70.715c0-3.45-3.421-6.247-7.643-6.247s-7.644,2.8-7.644,6.247V95.7c0,17.087-16.558,30.821-37.348,31.2a9.33,9.33,0,0,0-.985-.049q-.419.006-.836.049c-20.748-.414-37.259-14.134-37.259-31.2V70.715a5.719,5.719,0,0,0-2.243-4.507,8.609,8.609,0,0,0-5.519-1.825Z" transform="translate(-8 -2)" fill="#ff5700"/>
</svg>
