<svg xmlns="http://www.w3.org/2000/svg" xmlns:xlink="http://www.w3.org/1999/xlink" viewBox="0 0 26 26" fill="#5B5B5B">
  <path d="M12.96875 0.3125C12.425781 0.3125 11.882813 0.867188 10.78125 1.96875L4.21875 8.5625C3.011719 9.773438 3.414063 10 4.6875 10L8 10L8 18C8 19.65625 9.34375 21 11 21L15 21C16.65625 21 18 19.65625 18 18L18 10L21.25 10C22.660156 10 22.957031 9.773438 21.75 8.5625L15.15625 1.96875C14.054688 0.867188 13.511719 0.3125 12.96875 0.3125 Z M 0 19L0 23C0 24.65625 1.34375 26 3 26L23 26C24.65625 26 26 24.65625 26 23L26 19L24 19L24 23C24 23.550781 23.550781 24 23 24L3 24C2.449219 24 2 23.550781 2 23L2 19Z" fill="#5B5B5B" />
</svg>